<svg xmlns="http://www.w3.org/2000/svg" width="1024" height="1024" viewBox="0 0 60 60">
<g transform="translate(10 10)">
<g stroke="#4b8ef0" stroke-width="2.6" stroke-linecap="round" opacity="0.9"><line x1="2" y1="12.5" x2="9" y2="12.5"/><line x1="1" y1="19.5" x2="7" y2="19.5"/><line x1="3" y1="26.5" x2="9" y2="26.5"/></g>
<path d="M13.5 11.5 23.5 6.5l10 5v12l-10 5-10-5z" fill="none" stroke="#0b2545" stroke-width="2.8" stroke-linejoin="round"/>
<path d="M13.5 11.5 23.5 16.5l10-5M23.5 16.5v12" fill="none" stroke="#1a5ce0" stroke-width="2.2" stroke-linejoin="round"/>
<path d="M24.6 27.6c0-2.1 1.7-3.6 3.5-3.6 1.05 0 2 .5 2.55 1.3.55-.8 1.5-1.3 2.55-1.3 1.8 0 3.5 1.5 3.5 3.6 0 3.2-4.35 5.95-6.05 7-1.7-1.05-6.05-3.8-6.05-7z" fill="#ff4d4a" stroke="#fff" stroke-width="2.2"/>
</g></svg>
